<svg width="75" height="75" viewBox="0 0 75 75" fill="none" xmlns="http://www.w3.org/2000/svg">
<path fill-rule="evenodd" clip-rule="evenodd" d="M6.24634 15.7241V59.5519C6.24634 59.9352 6.41671 60.1056 6.75745 60.1056H14.85H15.0204C15.3186 60.063 15.5315 59.8074 15.4889 59.5093V45.837C16.2982 45.837 16.8945 45.837 17.3204 45.8796C17.7463 45.9222 18.4278 45.9222 19.45 45.9222C22.9426 45.9222 26.1371 45.5389 29.0334 44.4741C31.8019 43.4519 34.1871 41.663 35.8908 39.2778C37.5945 36.8926 38.4463 33.8685 38.4463 30.2056C38.4463 28.2889 38.1056 26.4574 37.4667 24.6685C36.7852 22.837 35.7204 21.1759 34.3575 19.813C32.7389 18.237 30.7797 17.0444 28.65 16.3204C26.2649 15.4259 23.3686 15 19.876 15C18.5982 15 17.3204 15 16 15.0426C15.3626 15.0632 14.745 15.0738 14.1473 15.0841C13.5069 15.0951 12.8893 15.1057 12.2945 15.1278C11.7367 15.1484 11.199 15.1591 10.6764 15.1694C10.1216 15.1804 9.58388 15.191 9.05745 15.213C8.07783 15.2556 7.39633 15.2556 6.67226 15.2556C6.37412 15.2556 6.24634 15.4259 6.24634 15.7241ZM17.2778 23.4333C16.426 23.3907 15.8297 23.4333 15.5315 23.4759V37.787L15.6593 37.7962C16.2071 37.8355 16.7182 37.8722 17.1926 37.8722H19.45C21.1112 37.8722 22.7723 37.6167 24.3482 37.1056C25.7112 36.7222 26.9037 35.913 27.8408 34.8481C28.7352 33.7833 29.1612 32.3352 29.1612 30.4611C29.2037 29.1407 28.863 27.8204 28.1815 26.6704C27.4575 25.563 26.4352 24.7111 25.2 24.2426C23.6241 23.6037 21.9204 23.3481 20.1741 23.3907C19.0667 23.3907 18.0871 23.3907 17.2778 23.4333ZM65.0241 35.1889C63.7463 34.5074 62.3834 34.0389 60.9352 33.7407C59.3593 33.4 57.7834 33.187 56.1649 33.187C55.313 33.1444 54.4186 33.2722 53.6093 33.4852C53.0556 33.613 52.5871 33.9111 52.2889 34.337C52.076 34.6778 51.9482 35.1037 51.9482 35.487C51.9482 35.8704 52.1186 36.2537 52.3741 36.5944C52.7575 37.063 53.2686 37.4463 53.8223 37.7444C54.8019 38.2556 55.8241 38.7241 56.8463 39.15C59.1463 39.9167 61.3612 40.9815 63.4056 42.2593C64.8112 43.1537 65.9612 44.3463 66.7704 45.7944C67.4519 47.1574 67.7926 48.6482 67.75 50.1815C67.7926 52.1833 67.1963 54.1852 66.0889 55.8463C64.8963 57.55 63.2352 58.8704 61.3186 59.637C59.2315 60.5315 56.676 61 53.6093 61C51.65 61 49.7334 60.8296 47.8167 60.4463C46.326 60.1907 44.8352 59.7222 43.4723 59.0833C43.1741 58.913 42.9612 58.6148 43.0038 58.2741V50.863C43.0038 50.7352 43.0463 50.5648 43.1741 50.4796C43.3019 50.3944 43.4297 50.437 43.5575 50.5222C45.2186 51.5019 46.9649 52.1833 48.8389 52.6093C50.4575 53.0352 52.1612 53.2482 53.8649 53.2482C55.4834 53.2482 56.6334 53.0352 57.4 52.6519C58.0815 52.3537 58.55 51.6296 58.55 50.863C58.55 50.2667 58.2093 49.713 57.5278 49.1593C56.8463 48.6056 55.4408 47.9667 53.3538 47.1574C51.1815 46.3907 49.1797 45.3685 47.3056 44.0907C45.9852 43.1537 44.8778 41.9185 44.0686 40.4704C43.3871 39.1074 43.0463 37.6167 43.0889 36.1259C43.0889 34.2944 43.6 32.5481 44.5371 30.9722C45.6019 29.2685 47.1778 27.9056 49.0093 27.0537C51.0112 26.0315 53.5241 25.563 56.5482 25.563C58.2945 25.563 60.0834 25.6907 61.8297 25.9463C63.1075 26.1167 64.3426 26.4574 65.4926 26.9259C65.663 26.9685 65.8334 27.1389 65.9186 27.3093C65.9612 27.4796 66.0038 27.65 66.0038 27.8204V34.763C66.0038 34.9333 65.9186 35.1037 65.7908 35.1889C65.4075 35.2741 65.1945 35.2741 65.0241 35.1889Z" fill="#252422"/>
</svg>
