<svg width="100" height="100" viewBox="0 0 100 100" fill="none" xmlns="http://www.w3.org/2000/svg">
<path fill-rule="evenodd" clip-rule="evenodd" d="M100 50.3305C100 64.872 77.6143 76.6611 50 76.6611C22.3863 76.6611 0 64.872 0 50.3305C0 35.789 22.3863 24 50 24C77.6143 24 100 35.789 100 50.3305ZM58.9714 58.8352C59.1504 58.8356 59.3239 58.7744 59.463 58.662L58.2473 64.9177C58.202 65.1473 58.2619 65.3833 58.4107 65.5635C58.5595 65.7437 58.781 65.8483 59.0135 65.8483H64.7582C65.1332 65.8483 65.454 65.5827 65.5255 65.2147L66.7654 58.8364H71.0418C73.2862 58.8364 75.1701 58.5934 76.6425 58.1144C78.148 57.625 79.5332 56.7949 80.7533 55.6521C81.7717 54.7169 82.6093 53.6653 83.244 52.5301C83.8788 51.3949 84.3339 50.1288 84.5996 48.7663C85.2524 45.4059 84.7298 42.7251 83.0452 40.7976C81.3741 38.884 78.7298 37.9139 75.1858 37.9139H64.1392C63.7642 37.9139 63.4434 38.1795 63.3719 38.5463L62.3432 43.8399C62.3474 42.1005 61.829 40.7437 60.7932 39.7914C59.4173 38.5283 57.0817 37.9139 53.6533 37.9139H49.5239L50.7051 31.8337C50.7272 31.7205 50.724 31.6039 50.6958 31.4921C50.6675 31.3803 50.6148 31.2762 50.5415 31.1871C50.4682 31.0981 50.3761 31.0264 50.2718 30.9772C50.1676 30.928 50.0537 30.9025 49.9384 30.9025H44.239C43.8646 30.9025 43.5432 31.1681 43.4717 31.5355L40.939 44.5637C40.7089 43.0977 40.1415 41.8375 39.2336 40.7976C37.5618 38.884 34.9176 37.9139 31.3735 37.9139H20.3269C19.9526 37.9139 19.6311 38.1795 19.5596 38.5463L14.4345 64.9177C14.3897 65.1473 14.4496 65.3833 14.5984 65.5635C14.7467 65.7443 14.9675 65.8483 15.2018 65.8483H20.946C21.3203 65.8483 21.6418 65.5827 21.7133 65.2147L22.9531 58.8364H27.229C29.4727 58.8364 31.3584 58.5934 32.8302 58.1144C34.3351 57.625 35.7203 56.7949 36.941 55.6521C37.9274 54.7459 38.7424 53.731 39.3696 52.6365L38.346 57.9052C38.3012 58.1348 38.3611 58.3719 38.5099 58.551C38.6581 58.7317 38.8796 58.8358 39.1132 58.8358H44.8127C45.187 58.8358 45.5085 58.5701 45.58 58.2034L48.3928 43.7278H52.3036C53.9701 43.7278 54.4584 44.0597 54.5915 44.2021C54.7118 44.3323 54.9618 44.791 54.681 46.2366L52.4141 57.9046C52.3923 58.0177 52.3958 58.1342 52.4243 58.2459C52.4528 58.3575 52.5056 58.4614 52.5789 58.5503C52.6521 58.6392 52.7441 58.7108 52.8483 58.7601C52.9524 58.8093 53.0661 58.835 53.1813 58.8352H58.9714ZM33.3144 48.0647C32.9563 49.9045 32.2821 51.2164 31.309 51.9645C30.3208 52.7266 28.7403 53.1125 26.6111 53.1125H24.0651L25.906 43.6389H29.1978C31.6159 43.6389 32.5901 44.1556 32.9813 44.5887C33.5237 45.1897 33.6388 46.3924 33.3144 48.0647ZM77.4528 48.0647C77.0941 49.9045 76.4198 51.2164 75.4479 51.9645C74.4592 52.7266 72.8787 53.1125 70.75 53.1125H68.2035L70.0438 43.6389H73.3362C75.7543 43.6389 76.7285 44.1556 77.1203 44.5887C77.6614 45.1897 77.7771 46.3924 77.4528 48.0647Z" fill="#252422"/>
</svg>
