<svg width="75" height="75" viewBox="0 0 75 75" fill="none" xmlns="http://www.w3.org/2000/svg">
<path d="M29.4386 49.2752H13.5974L10.3742 59.3748C10.2847 59.7493 9.93341 60.0145 9.55126 59.9962H1.52771C1.07017 59.9962 0.910145 59.7432 1.04768 59.2368L14.7631 19.6324C14.9004 19.2185 15.0374 18.8135 15.1747 18.2838C15.3541 17.3624 15.4459 16.4263 15.449 15.4877C15.4097 15.2103 15.6536 14.9646 15.9289 15.0042H26.8329C27.1524 15.0042 27.3349 15.1193 27.3813 15.3493L42.9487 59.3056C43.0856 59.7665 42.9484 59.9966 42.5373 59.9962H33.6219C33.3094 60.031 33.0107 59.8206 32.9363 59.5128L29.4386 49.2752ZM16.0662 40.7596H26.9015C25.1213 34.7882 23.1122 28.8956 21.4838 22.8776C19.6386 29.1199 17.9347 34.9093 16.0662 40.7596Z" fill="#252422"/>
<path d="M54.2919 45.2989C54.9022 50.4898 59.1481 52.9647 63.8495 52.8591C66.5007 52.8058 69.3339 52.3831 71.8113 51.3539C72.0318 51.1686 72.1431 51.2843 72.1431 51.7036V58.3428C72.164 58.6882 72.0233 58.9969 71.7449 59.1815C68.6657 60.6174 65.1315 61.0506 61.7919 60.9954C51.835 60.9954 44.9973 53.7929 45.0001 43.3137C44.9739 33.3831 51.2492 25.0052 60.9954 25.0052C69.2573 24.7853 74.977 31.5761 75 40.0292C75 41.5684 74.9163 43.1135 74.7346 44.6415C74.6993 44.9564 74.4382 45.2009 74.1371 45.2009C67.5389 45.2009 60.9085 45.2989 54.2919 45.2989ZM54.2919 38.9321C57.9693 38.9321 61.6679 39.0656 65.3428 38.8973C65.8951 38.8393 66.3053 38.7315 66.3053 38.142C66.2286 35.0084 63.6527 32.4308 60.6636 32.5509C57.0523 32.3209 54.741 35.4509 54.2919 38.9321Z" fill="#252422"/>
</svg>
