<svg width="100" height="101" viewBox="0 0 100 101" fill="none" xmlns="http://www.w3.org/2000/svg">
<path fill-rule="evenodd" clip-rule="evenodd" d="M45.2833 19.5538C46.6664 24.3251 47.8968 28.5691 51.1794 30.4385C54.4939 32.2507 58.7518 31.0694 63.5387 29.7413C66.1116 29.0275 68.8374 28.2713 71.6515 27.9147C74.7141 27.5266 77.8814 27.6119 81.0705 28.7401C82.0168 29.0792 82.9481 29.4992 83.8556 30.0027L83.8975 30.0261C92.8903 35.0446 96.1346 46.3784 91.1803 55.3895L91.1218 55.4951L91.0626 55.6004C85.9948 64.5482 74.6455 67.7379 65.6527 62.7194L65.6108 62.696C64.7059 62.188 63.8594 61.6159 63.074 60.9886C60.4393 58.8668 58.7037 56.216 57.426 53.4058C56.2519 50.8235 55.4643 48.1067 54.7209 45.5421C53.3379 40.7708 52.1076 36.5268 48.825 34.6574C45.5105 32.8452 41.2524 34.0265 36.4656 35.3546C33.8926 36.0684 31.1669 36.8246 28.3527 37.1812C25.2902 37.5693 22.1228 37.484 18.9338 36.3558C17.9875 36.0167 17.0562 35.5967 16.1487 35.0932L16.1068 35.0698C7.11407 30.0514 3.82136 18.6707 8.94167 9.4955C14.0095 0.54773 25.3587 -2.642 34.3515 2.37652L34.3935 2.39991C35.2984 2.9079 36.1449 3.48002 36.9303 4.1073C39.5649 6.22905 41.3005 8.87992 42.5782 11.6901C43.7523 14.2724 44.54 16.9892 45.2833 19.5538Z" fill="#252422"/>
<circle cx="44.2445" cy="81.232" r="18.7198" fill="#252422"/>
</svg>
