<svg width="100" height="100" viewBox="0 0 100 100" fill="none" xmlns="http://www.w3.org/2000/svg">
<g clip-path="url(#clip0_7813_510)">
<path fill-rule="evenodd" clip-rule="evenodd" d="M0 0H100V100H0V0ZM33.9461 78.9359L26.2937 83.5672C28.509 88.266 32.8723 92.1586 40.3898 92.1586C48.7141 92.1586 54.4195 87.7281 54.4195 77.9949V45.9098H45.0223V77.8621C45.0223 82.5605 43.075 83.7684 39.9871 83.7684C36.7656 83.7684 35.4227 81.5535 33.9461 78.9359ZM67.1754 78.1301L59.5238 82.5602C62.2758 87.9977 67.9141 92.1598 76.6402 92.1598C85.568 92.1598 92.2133 87.5285 92.2133 79.0699C92.2133 71.2168 87.716 67.7266 79.7277 64.3027L77.3785 63.2961C73.3512 61.5508 71.6059 60.409 71.6059 57.5898C71.6059 55.3078 73.3512 53.5625 76.1035 53.5625C78.7887 53.5625 80.5332 54.7035 82.1445 57.5898L89.4617 52.8906C86.3742 47.4535 82.0781 45.3723 76.1039 45.3723C67.7129 45.3723 62.343 50.7426 62.343 57.791C62.343 65.4434 66.8402 69.0684 73.6203 71.9539L75.9691 72.9617C80.2652 74.8406 82.816 75.982 82.816 79.2039C82.816 81.8891 80.3332 83.8359 76.4391 83.8359C71.8078 83.8359 69.1898 81.4195 67.1754 78.1301Z" fill="#252422"/>
</g>
<defs>
<clipPath id="clip0_7813_510">
<rect width="100" height="100" fill="white"/>
</clipPath>
</defs>
</svg>
