<svg width="100" height="100" viewBox="0 0 100 100" fill="none" xmlns="http://www.w3.org/2000/svg">
<path fill-rule="evenodd" clip-rule="evenodd" d="M30.9447 0H41.8618V4.49219H35.51V8.98438H41.8618V13.4766H30.9447V0ZM44.0452 0H54.9623V3.90625H48.6105V4.6875H54.9623V13.6719H44.0452V9.57031H50.397V8.78906H44.0452V0ZM68.0628 0H57.1457V8.78906H63.4975V9.57031H57.1457V13.6719H68.0628V4.6875H61.711V3.90625H68.0628V0ZM79.4406 91.9568L86 19.6523H14L20.5524 91.9682L49.9559 100L79.4406 91.9568ZM27.398 34.4345H49.9688H50H72.5481L70.9209 52.3861L70.701 54.7677L68.5828 78.1175L68.4473 79.616L50 84.6483L49.9585 84.6596L31.4948 79.616L30.2319 65.6901H34.4023H39.2802L39.922 72.7637L49.9605 75.4309L49.9688 75.4279L60.0219 72.758L61.0681 61.2552L50 61.2553H29.8291L29.0213 52.3862L49.9688 52.3861H61.8498L62.6699 43.3039H50H49.9688H28.2174L27.398 34.4345Z" fill="#252422"/>
</svg>
