<svg width="100" height="100" viewBox="0 0 100 100" fill="none" xmlns="http://www.w3.org/2000/svg">
<g clip-path="url(#clip0_7813_366)">
<path fill-rule="evenodd" clip-rule="evenodd" d="M21.1718 0H25.664V4.45312H29.8046V0H34.2968V13.4766H29.8046V8.98438H25.7031V13.4766H21.1718V0ZM36.2695 4.49219H40.2343V13.4766H44.7265V4.49219H48.7109V0H36.2695V4.49219ZM50.6836 0H55.3906L58.2812 4.74609L61.1718 0H65.8789V13.4766H61.3867V6.79688L58.2422 11.6406L55.0976 6.79688V13.4766H50.6836V0ZM72.5976 0H68.1054V13.4766H78.9648V9.02344H72.5976V0ZM21.0156 91.9922L14.5703 19.6485H85.4297L78.9844 91.9531L49.9414 100L21.0156 91.9922ZM49.9609 34.4336H27.7344L30.1562 61.2305H49.9609V61.25H60.8984L59.8633 72.7735L49.9804 75.4245L40.0781 72.7735L39.4531 65.6836H30.5469L31.7969 79.6094L50 84.6875V84.6376L68.125 79.6094L70.5664 52.3828H50H49.9609H38.2812L37.4609 43.3008H49.9609H50H71.3672L72.1875 34.4336H50H49.9609Z" fill="#252422"/>
</g>
<defs>
<clipPath id="clip0_7813_366">
<rect width="100" height="100" fill="white"/>
</clipPath>
</defs>
</svg>
