<svg width="75" height="75" viewBox="0 0 75 75" fill="none" xmlns="http://www.w3.org/2000/svg">
<path fill-rule="evenodd" clip-rule="evenodd" d="M16.5297 44.8474C23.9919 44.8474 30.5971 42.8736 34.7997 38.6712C38.0597 35.5831 39.7749 31.0374 39.7752 25.5474C39.7752 20.1436 37.5454 15.5978 34.1142 12.7669C30.4259 9.67881 24.7647 8.04883 17.044 8.04883C10.5538 8.04883 5.63123 8.47711 1.95249 9.07279C1.35268 9.16991 0.918945 9.69189 0.918945 10.2995V65.0335C0.918945 65.7279 1.48185 66.2908 2.17622 66.2908H10.1255C10.8199 66.2908 11.3828 65.7279 11.3828 65.0335V46.0183C11.3828 45.2311 12.0994 44.6328 12.8831 44.7065C13.971 44.8087 15.212 44.8474 16.5297 44.8474ZM16.5297 36.6126C24.4207 36.6126 29.2245 32.7526 29.2245 25.9764C29.2245 19.5436 24.7647 16.1126 17.4737 16.1126C15.2678 16.1126 13.553 16.2597 12.3655 16.4426C11.7867 16.5317 11.3828 17.0418 11.3828 17.6273V35.2179C11.3828 35.7876 11.7655 36.2911 12.3282 36.3802C13.4729 36.5615 14.8735 36.6126 16.5297 36.6126ZM56.7545 67.1493C52.1509 67.1493 47.9737 66.1552 44.932 64.6843C44.4121 64.4328 44.1653 63.8408 44.3156 63.2832L45.6823 58.2143C45.9003 57.4058 46.8376 57.0255 47.5963 57.3799C50.1218 58.5596 53.7413 59.6007 56.8402 59.6007C61.4717 59.6007 63.5309 57.7136 63.5309 54.9684C63.5309 52.1388 61.8157 50.6798 56.6688 48.8788C48.5195 46.0479 45.0895 41.5879 45.1749 36.6983C45.1749 29.3217 51.265 23.575 60.9574 23.575C65.0519 23.575 68.677 24.5133 71.1216 25.6194C71.6568 25.8615 71.9113 26.4642 71.7551 27.0304L70.3941 31.9644C70.176 32.7553 69.269 33.1311 68.5207 32.7945C66.6336 31.9456 63.9837 31.1231 61.1288 31.1231C57.3545 31.1231 55.2959 32.9245 55.2959 35.4974C55.2959 38.1569 57.269 39.4436 62.5871 41.3307C70.1352 44.075 73.6521 47.935 73.7381 54.1116C73.7378 61.6598 67.8197 67.1493 56.7545 67.1493Z" fill="#252422"/>
</svg>
