<svg width="506" height="506" viewBox="0 0 506 506" fill="none" xmlns="http://www.w3.org/2000/svg">
<mask id="mask0_7677_132" style="mask-type:alpha" maskUnits="userSpaceOnUse" x="67" y="67" width="372" height="372">
<circle cx="252.943" cy="252.943" r="185.167" transform="rotate(60 252.943 252.943)" fill="#D9D9D9"/>
</mask>
<g mask="url(#mask0_7677_132)">
<rect x="376.269" y="96.2153" width="18.5167" height="185.167" transform="rotate(60 376.269 96.2153)" fill="#43403C"/>
<rect x="225.168" y="204.835" width="18.5167" height="185.167" transform="rotate(60 225.168 204.835)" fill="#43403C"/>
<rect x="302.202" y="-32.0723" width="18.5167" height="185.167" transform="rotate(60 302.202 -32.0723)" fill="#43403C"/>
<rect x="151.101" y="76.5474" width="18.5167" height="185.167" transform="rotate(60 151.101 76.5474)" fill="#43403C"/>
<rect x="394.786" y="128.287" width="18.5167" height="185.167" transform="rotate(60 394.786 128.287)" fill="#43403C"/>
<rect x="243.685" y="236.907" width="18.5167" height="185.167" transform="rotate(60 243.685 236.907)" fill="#43403C"/>
<rect x="468.853" y="256.575" width="18.5167" height="185.167" transform="rotate(60 468.853 256.575)" fill="#43403C"/>
<rect x="317.751" y="365.194" width="18.5167" height="185.167" transform="rotate(60 317.751 365.194)" fill="#43403C"/>
<rect x="339.236" y="32.0718" width="18.5167" height="185.167" transform="rotate(60 339.236 32.0718)" fill="#43403C"/>
<rect x="188.134" y="140.691" width="18.5167" height="185.167" transform="rotate(60 188.134 140.691)" fill="#43403C"/>
<rect x="431.819" y="192.431" width="18.5167" height="185.167" transform="rotate(60 431.819 192.431)" fill="#43403C"/>
<rect x="280.718" y="301.051" width="18.5167" height="185.167" transform="rotate(60 280.718 301.051)" fill="#43403C"/>
<rect x="505.886" y="320.719" width="18.5167" height="185.167" transform="rotate(60 505.886 320.719)" fill="#43403C"/>
<rect x="354.785" y="429.338" width="18.5167" height="185.167" transform="rotate(60 354.785 429.338)" fill="#43403C"/>
<rect x="320.719" y="-0.000488281" width="18.5167" height="185.167" transform="rotate(60 320.719 -0.000488281)" fill="#43403C"/>
<rect x="169.618" y="108.619" width="18.5167" height="185.167" transform="rotate(60 169.618 108.619)" fill="#43403C"/>
<rect x="413.302" y="160.359" width="18.5167" height="185.167" transform="rotate(60 413.302 160.359)" fill="#43403C"/>
<rect x="262.201" y="268.979" width="18.5167" height="185.167" transform="rotate(60 262.201 268.979)" fill="#43403C"/>
<rect x="487.369" y="288.647" width="18.5167" height="185.167" transform="rotate(60 487.369 288.647)" fill="#43403C"/>
<rect x="336.268" y="397.267" width="18.5167" height="185.167" transform="rotate(60 336.268 397.267)" fill="#43403C"/>
<rect x="357.752" y="64.1436" width="18.5167" height="185.167" transform="rotate(60 357.752 64.1436)" fill="#43403C"/>
<rect x="206.651" y="172.763" width="18.5167" height="185.167" transform="rotate(60 206.651 172.763)" fill="#43403C"/>
<rect x="450.336" y="224.503" width="18.5167" height="185.167" transform="rotate(60 450.336 224.503)" fill="#43403C"/>
<rect x="299.235" y="333.123" width="18.5167" height="185.167" transform="rotate(60 299.235 333.123)" fill="#43403C"/>
<rect x="311.46" y="-16.0361" width="18.5167" height="185.167" transform="rotate(60 311.46 -16.0361)" fill="#F7F7F7"/>
<rect x="515.145" y="336.755" width="18.5167" height="185.167" transform="rotate(60 515.145 336.755)" fill="#F7F7F7"/>
<rect x="345.527" y="413.302" width="18.5167" height="185.167" transform="rotate(60 345.527 413.302)" fill="#F7F7F7"/>
</g>
</svg>
