<svg width="100" height="100" viewBox="0 0 100 100" fill="none" xmlns="http://www.w3.org/2000/svg">
<path d="M50 0H66.6633C75.8615 0 83.3267 7.46667 83.3267 16.6667C83.3267 25.8667 75.8615 33.3333 66.6633 33.3333H50V49.9929C50.0038 40.7962 57.4675 33.3333 66.6633 33.3333C75.8615 33.3333 83.3267 40.8 83.3267 50C83.3267 59.2 75.8615 66.6667 66.6633 66.6667C57.4675 66.6667 50.0038 59.2038 50 50.0071V66.6667V83.3333C50 92.5333 42.5348 100 33.3367 100C24.1385 100 16.6733 92.5333 16.6733 83.3333C16.6733 74.1333 24.1385 66.6667 33.3367 66.6667C24.1385 66.6667 16.6733 59.2 16.6733 50C16.6733 40.8 24.1386 33.3333 33.3367 33.3333C24.1386 33.3333 16.6734 25.8667 16.6734 16.6667C16.6734 7.46667 24.1386 2.94573e-08 33.3367 2.94573e-08L50 0Z" fill="#252422"/>
</svg>
