<svg width="441" height="441" viewBox="0 0 441 441" fill="none" xmlns="http://www.w3.org/2000/svg">
<path fill-rule="evenodd" clip-rule="evenodd" d="M329.878 410.654L330.086 410.534L302.586 362.902L176.512 435.691C182.208 436.843 187.952 437.771 193.729 438.471C202.445 439.527 211.237 440.066 220.058 440.073C228.252 440.08 236.47 439.629 244.674 438.709C252.421 437.84 260.155 436.553 267.843 434.84C275.19 433.203 282.496 431.176 289.731 428.751C296.709 426.413 303.62 423.706 310.441 420.622C317.012 417.65 323.499 414.33 329.878 410.654Z" fill="#F2F2F2"/>
<path fill-rule="evenodd" clip-rule="evenodd" d="M440.073 220.015L275.086 315.271L302.586 362.902L428.561 290.17C429.791 286.51 430.924 282.818 431.961 279.099C434.947 268.38 437.125 257.438 438.468 246.371C439.526 237.647 440.066 228.845 440.073 220.015Z" fill="#F2F2F2"/>
<path fill-rule="evenodd" clip-rule="evenodd" d="M110 410.583L275.086 315.271L247.586 267.639L63.0137 374.202C73.3389 384.734 84.5943 394.08 96.5689 402.184C100.953 405.151 105.433 407.952 110 410.583Z" fill="#F2F2F2"/>
<path fill-rule="evenodd" clip-rule="evenodd" d="M410.563 110.037L220.086 220.008L247.586 267.639L432.06 161.134C427.189 143.647 420.058 126.484 410.563 110.037Z" fill="#F2F2F2"/>
<path fill-rule="evenodd" clip-rule="evenodd" d="M29.5113 330.037L220.086 220.008L192.586 172.377L8.01374 278.94C12.8848 296.426 20.0155 313.589 29.5113 330.037Z" fill="#F2F2F2"/>
<path fill-rule="evenodd" clip-rule="evenodd" d="M330.074 29.4898L165.086 124.745L192.586 172.377L377.06 65.8707C366.735 55.3389 355.479 45.9928 343.504 37.8885C339.12 34.9215 334.64 32.1212 330.074 29.4898Z" fill="#F2F2F2"/>
<path fill-rule="evenodd" clip-rule="evenodd" d="M7.63705e-05 220.058L165.086 124.745L137.586 77.1138L11.5128 149.902C10.283 153.563 9.14949 157.255 8.11311 160.974C5.12654 171.693 2.94856 182.636 1.60554 193.703C0.547195 202.427 0.00740033 211.228 7.63705e-05 220.058Z" fill="#F2F2F2"/>
<path fill-rule="evenodd" clip-rule="evenodd" d="M263.561 4.38215C257.865 3.2303 252.122 2.30257 246.344 1.60213C237.629 0.54573 228.836 0.00740049 220.016 7.65211e-05C211.822 -0.00675959 203.604 0.444411 195.4 1.36458C187.653 2.23323 179.919 3.51985 172.23 5.23347C164.883 6.87068 157.577 8.89778 150.342 11.3223C143.365 13.6602 136.453 16.3677 129.632 19.4517C123.024 22.44 116.501 25.7813 110.086 29.4825L137.586 77.1138L263.561 4.38215Z" fill="#F2F2F2"/>
<path fill-rule="evenodd" clip-rule="evenodd" d="M422.36 306.472C424.643 301.118 426.711 295.679 428.561 290.17L302.586 362.902L330.086 410.534L330.196 410.47C336.569 406.784 342.688 402.827 348.546 398.622C354.627 394.257 360.428 389.625 365.941 384.751C371.659 379.698 377.067 374.384 382.159 368.84C387.487 363.038 392.468 356.984 397.094 350.709C401.993 344.064 406.493 337.173 410.584 330.073C414.988 322.431 418.917 314.547 422.36 306.472Z" fill="#252422"/>
<path fill-rule="evenodd" clip-rule="evenodd" d="M133.627 422.371C125.542 418.925 117.65 414.992 110 410.583L275.086 315.271L302.586 362.902L176.512 435.691C172.727 434.926 168.963 434.061 165.225 433.099C154.448 430.326 143.883 426.741 133.627 422.371Z" fill="#252422"/>
<path fill-rule="evenodd" clip-rule="evenodd" d="M439.515 204.185C438.484 189.762 436.018 175.341 432.06 161.134L247.586 267.639L275.086 315.271L440.073 220.015C440.078 214.745 439.893 209.465 439.515 204.185Z" fill="#252422"/>
<path fill-rule="evenodd" clip-rule="evenodd" d="M63.0137 374.202C50.3057 361.241 39.0069 346.484 29.5113 330.037L220.086 220.008L247.586 267.639L63.0137 374.202Z" fill="#252422"/>
<path fill-rule="evenodd" clip-rule="evenodd" d="M410.563 110.037C401.067 93.5894 389.768 78.8324 377.06 65.8707L192.586 172.377L220.086 220.008L410.563 110.037Z" fill="#252422"/>
<path fill-rule="evenodd" clip-rule="evenodd" d="M0.558382 235.889C0.180941 230.609 -0.00431827 225.328 7.63705e-05 220.058L165.086 124.745L192.586 172.377L8.01374 278.94C4.05598 264.732 1.58963 250.312 0.558382 235.889Z" fill="#252422"/>
<path fill-rule="evenodd" clip-rule="evenodd" d="M274.849 6.97406C271.11 6.01214 267.346 5.14753 263.561 4.38215L137.586 77.1138L165.086 124.745L330.074 29.4898C322.423 25.0814 314.531 21.1481 306.446 17.7026C296.191 13.3322 285.625 9.74701 274.849 6.97406Z" fill="#252422"/>
<path fill-rule="evenodd" clip-rule="evenodd" d="M110.086 29.4825L110.037 29.5111C108.831 30.2071 107.635 30.9129 106.447 31.6283L105.843 31.993L105.263 32.3468C100.537 35.2335 95.9578 38.2718 91.5273 41.452C85.446 45.817 79.6453 50.4491 74.1318 55.3226C68.4148 60.3761 63.0063 65.6893 57.9148 71.2337C52.5867 77.0352 47.6052 83.0899 42.9795 89.3646C38.0808 96.0094 33.5808 102.901 29.49 110C25.0859 117.643 21.156 125.526 17.7134 133.602C15.4311 138.956 13.3631 144.394 11.5128 149.902L137.586 77.1138L110.086 29.4825Z" fill="#252422"/>
</svg>
