<svg width="75" height="75" viewBox="0 0 75 75" fill="none" xmlns="http://www.w3.org/2000/svg">
<path d="M38.3438 4C59.903 4.00007 70.6835 15.4396 70.6836 27.8359C70.6836 31.492 69.7754 35.6189 68.2227 39.8477C68.2201 39.8475 68.2172 39.8453 68.2139 39.8447C64.2373 50.7188 55.9932 62.2406 48.0234 68.1719C47.5804 68.4956 47.1188 68.8197 46.6758 69.1094C44.1159 70.7285 41.6749 71.8019 39.541 72.0918C39.4899 72.1088 39.4554 72.1094 39.4043 72.1094C39.285 72.1264 39.1652 72.1436 39.0459 72.1436C38.8074 72.1606 38.5689 72.1777 38.3457 72.1777C36.5714 72.1777 34.6417 71.6321 32.6611 70.6436C33.5537 69.4547 34.3495 68.19 35.0449 66.8623C34.3475 68.1865 33.5499 69.4504 32.6602 70.6436C32.609 70.6265 32.5741 70.6088 32.54 70.5918C24.023 66.2964 14.3109 54.0416 9.32715 42.0596C9.3279 42.0573 9.32835 42.055 9.3291 42.0527C7.25445 37.0624 6.00009 32.12 6 27.8281C6 26.7543 6.08541 25.6798 6.25586 24.623L6.25781 24.6221C7.05261 19.393 9.853 14.5152 14.6758 10.8135C14.6729 10.8124 14.6698 10.8116 14.667 10.8105C15.0812 10.4914 15.5111 10.1819 15.9551 9.88086C16.0389 9.82369 16.1231 9.76644 16.208 9.70996C16.2456 9.68508 16.2835 9.6605 16.3213 9.63574C17.3737 8.94381 18.5095 8.30479 19.7275 7.72559C19.8107 7.68592 19.8946 7.64752 19.9785 7.6084C20.0764 7.56294 20.1745 7.51735 20.2734 7.47266C20.3992 7.41558 20.5259 7.35956 20.6533 7.30371C20.6866 7.28922 20.7196 7.27417 20.7529 7.25977C25.4804 5.20631 31.3438 4 38.3438 4ZM34.0781 12.5215C27.8409 12.5215 21.992 14.1606 16.9209 17.0186C16.8979 17.031 16.8762 17.0443 16.8555 17.0547L16.8564 17.0557C17.5102 18.0719 18.542 19.6411 19.7832 21.3555C20.5862 22.475 21.4711 23.6582 22.3867 24.79C22.4151 24.8255 22.4432 24.8611 22.4717 24.8965C24.0755 26.8907 26.1063 29.2085 28.5811 31.748C28.5625 31.7332 28.5438 31.718 28.5254 31.7031C28.5824 31.7535 28.6377 31.8057 28.6943 31.8564C28.7025 31.8654 28.7107 31.8747 28.7197 31.8838C31.5712 34.4404 33.9094 37.5597 35.5645 41.0537C35.575 41.0748 35.5852 41.0967 35.5957 41.1182C35.6806 41.2984 35.7634 41.4798 35.8447 41.6621C35.8479 41.6697 35.8514 41.6771 35.8545 41.6846C35.9476 41.8941 36.0381 42.1049 36.127 42.3164C36.8471 44.0446 37.4048 45.8566 37.7803 47.7344C37.8566 48.1216 37.927 48.512 37.9893 48.9062C38.0821 49.4963 38.1564 50.0921 38.2129 50.6934C38.2481 51.0767 38.2806 51.4604 38.293 51.8438C38.3205 52.2563 38.3345 52.691 38.3398 53.1211C38.3409 53.2235 38.3438 53.326 38.3438 53.4287C38.3437 56.453 37.8811 59.3643 37.0234 62.0996C36.8576 62.6247 36.6789 63.1439 36.4834 63.6553C36.4852 63.6523 36.8965 62.9946 37.4414 61.8154C37.4692 61.7552 37.4975 61.6938 37.5254 61.6309C37.7011 61.2425 37.886 60.8021 38.0762 60.3154C38.0909 60.2812 38.1059 60.2467 38.1211 60.2119C38.1366 60.1705 38.1505 60.1281 38.166 60.0859C38.4952 59.2215 38.83 58.2195 39.123 57.0996C39.1435 57.022 39.1635 56.9439 39.1836 56.8652C39.2172 56.7324 39.2499 56.5979 39.2822 56.4619C39.3094 56.349 39.34 56.236 39.3662 56.1211C39.4036 55.9622 39.436 55.7981 39.4688 55.6289C39.5268 55.3478 39.5817 55.061 39.6328 54.7686C39.8015 53.8213 39.9247 52.8154 39.9912 51.7578C40.0277 51.192 40.0508 50.6123 40.0508 50.0195C40.0508 45.1692 39.0231 41.0032 37.5156 37.3555C37.4911 37.2962 37.4672 37.2367 37.4424 37.1777C37.3641 36.991 37.2839 36.806 37.2031 36.6221C37.1691 36.5447 37.135 36.4675 37.1006 36.3906C34.4248 30.4047 30.5186 25.8484 27.9492 21.9473C28.1939 21.8445 28.4398 21.7436 28.6875 21.6465C30.2192 21.0459 31.8088 20.5543 33.4443 20.1807C35.8435 19.6323 38.3417 19.3398 40.9043 19.3398C44.4547 19.3398 47.8689 19.8851 51.0596 20.9248C55.1382 22.2202 58.8595 24.2825 62.0859 26.9414C62.292 27.0777 62.4792 27.2143 62.6836 27.3506C56.3516 18.3852 45.9052 12.5215 34.0781 12.5215Z" fill="#252422"/>
</svg>
