<svg width="371" height="370" viewBox="0 0 371 370" fill="none" xmlns="http://www.w3.org/2000/svg">
<path fill-rule="evenodd" clip-rule="evenodd" d="M310.441 48.2749C305.558 43.7905 300.462 39.5981 295.181 35.7046L148.165 120.584L157.423 136.62L310.441 48.2749Z" fill="#43403C"/>
<path fill-rule="evenodd" clip-rule="evenodd" d="M166.681 152.656L157.423 136.62L4.40486 224.965C5.78303 231.149 7.48933 237.298 9.52986 243.388L166.681 152.656Z" fill="#43403C"/>
<path fill-rule="evenodd" clip-rule="evenodd" d="M323.833 61.9243C327.935 66.5649 331.834 71.4473 335.508 76.5654L175.94 168.692L166.681 152.656L323.833 61.9243Z" fill="#43403C"/>
<path d="M175.94 168.692L185.198 184.728L24.8388 277.311L15.5804 261.276L175.94 168.692Z" fill="#43403C"/>
<path fill-rule="evenodd" clip-rule="evenodd" d="M364.527 230.861C366.555 222.979 368.067 214.964 369.048 206.87L240.748 280.943L250.007 296.979L364.527 230.861Z" fill="#43403C"/>
<path fill-rule="evenodd" clip-rule="evenodd" d="M135.487 363.098C144.509 365.611 153.719 367.444 163.034 368.575L259.265 313.016L250.007 296.979L135.487 363.098Z" fill="#43403C"/>
<path fill-rule="evenodd" clip-rule="evenodd" d="M207.363 0.881347L111.131 56.4404L120.39 72.4766L234.91 6.3584C225.888 3.84473 216.678 2.01172 207.363 0.881347Z" fill="#43403C"/>
<path fill-rule="evenodd" clip-rule="evenodd" d="M5.87018 138.594C3.84211 146.476 2.3299 154.491 1.3487 162.585L129.648 88.5122L120.39 72.4766L5.87018 138.594Z" fill="#43403C"/>
<path fill-rule="evenodd" clip-rule="evenodd" d="M360.867 126.068C362.907 132.158 364.614 138.307 365.992 144.491L212.974 232.836L203.715 216.8L360.867 126.068Z" fill="#43403C"/>
<path fill-rule="evenodd" clip-rule="evenodd" d="M222.232 248.872L212.974 232.836L59.9552 321.181C64.8382 325.666 69.9344 329.858 75.2157 333.751L222.232 248.872Z" fill="#43403C"/>
<path fill-rule="evenodd" clip-rule="evenodd" d="M171.856 -6.86177e-07C144.777 1.93603 117.705 9.88263 92.6148 24.3685L101.873 40.4043L171.856 -6.86177e-07Z" fill="#43403C"/>
<path fill-rule="evenodd" clip-rule="evenodd" d="M14.9002 112L111.131 56.4404L101.873 40.4043L31.8904 80.8086C25.2093 90.6807 19.5311 101.133 14.9002 112Z" fill="#43403C"/>
<path d="M345.558 92.1445L354.816 108.18L194.457 200.764L185.198 184.728L345.558 92.1445Z" fill="#43403C"/>
<path fill-rule="evenodd" clip-rule="evenodd" d="M203.715 216.8L194.457 200.764L34.889 292.891C38.5628 298.009 42.4615 302.891 46.5633 307.532L203.715 216.8Z" fill="#43403C"/>
<path fill-rule="evenodd" clip-rule="evenodd" d="M355.496 257.457L259.265 313.016L268.523 329.052L338.506 288.647C345.187 278.775 350.866 268.323 355.496 257.457Z" fill="#43403C"/>
<path fill-rule="evenodd" clip-rule="evenodd" d="M198.541 369.456C225.62 367.52 252.691 359.573 277.782 345.087L268.523 329.052L198.541 369.456Z" fill="#43403C"/>
<path fill-rule="evenodd" clip-rule="evenodd" d="M277.813 24.3511C271.38 20.6445 264.745 17.3364 257.948 14.4385L129.648 88.5122L138.907 104.548L277.813 24.3511Z" fill="#43403C"/>
<path fill-rule="evenodd" clip-rule="evenodd" d="M6.74868e-05 184.746C-0.00579189 191.642 0.374091 198.56 1.1485 205.464L148.165 120.584L138.907 104.548L6.74868e-05 184.746Z" fill="#43403C"/>
<path fill-rule="evenodd" clip-rule="evenodd" d="M369.248 163.992L222.232 248.872L231.49 264.908L370.397 184.71C370.402 177.814 370.023 170.896 369.248 163.992Z" fill="#43403C"/>
<path fill-rule="evenodd" clip-rule="evenodd" d="M112.449 355.017C105.652 352.119 99.0162 348.812 92.5836 345.105L231.49 264.908L240.748 280.943L112.449 355.017Z" fill="#43403C"/>
</svg>
