<svg width="75" height="75" viewBox="0 0 75 75" fill="none" xmlns="http://www.w3.org/2000/svg">
<path fill-rule="evenodd" clip-rule="evenodd" d="M36.8643 74.7417V74.8317L36.9422 74.7867L36.8643 74.7417Z" fill="#252422"/>
<path fill-rule="evenodd" clip-rule="evenodd" d="M36.9424 74.7867L37.0204 74.7417V74.8317L36.9424 74.7867Z" fill="#252422"/>
<path d="M5.08472 17.4608L35.4853 0V13.4074L23.6368 20.267C23.1691 20.423 23.1691 21.2024 23.6368 21.3583L37.6679 29.4651C37.9796 29.621 38.4473 29.777 38.915 29.4651L52.9461 21.3583C53.4138 21.2024 53.4138 20.5788 52.9461 20.267L41.0977 13.4074V0L71.1864 17.4608V52.5383L59.6498 45.8346V32.1155C59.6498 31.4918 59.1821 31.1801 58.7144 31.4918L44.6834 39.5986C44.3716 39.7546 44.0597 40.2222 44.0597 40.6899V56.9035C44.0597 57.5272 44.5275 57.8389 44.9952 57.5272L56.8436 50.6675L68.3802 57.3712L38.2915 74.742L38.2135 74.787L38.1356 74.742L8.04681 57.3712L19.5834 50.6675L31.4319 57.5272C31.8995 57.8389 32.3672 57.3712 32.2113 56.7477V40.5341C32.2113 40.0664 32.0555 39.7546 31.5878 39.4427L17.5567 31.3359C17.2449 31.1801 16.6213 31.4918 16.6213 31.9595V45.6787L5.08472 52.3824V52.2266V17.4608Z" fill="#252422"/>
</svg>
