<svg width="103" height="116" viewBox="0 0 103 116" fill="none" xmlns="http://www.w3.org/2000/svg">
<path d="M96.1707 49.5871C102.61 53.3262 102.61 62.6739 96.1707 66.4129L16.4878 112.684C10.0488 116.423 2 111.749 2 104.271L2.00001 11.7289C2.00001 4.25075 10.0488 -0.423107 16.4878 3.31597L96.1707 49.5871Z" fill="#F7F7F7"/>
<path d="M98 49.3399C104.667 53.1889 104.667 62.8112 98 66.6602L15.5 114.292C8.9376 118.081 0.759928 113.478 0.505901 105.99L0.500041 105.632L3.50004 105.632C3.50036 111.02 9.3335 114.388 14 111.693L96.5 64.0625C101.167 61.3683 101.167 54.6319 96.5 51.9375L14 4.30669C9.33351 1.61246 3.50037 4.97986 3.50005 10.3682L0.500045 10.3682C0.500368 2.67052 8.83353 -2.14072 15.5 1.70805L98 49.3399ZM3.50004 105.632L0.500041 105.632L0.500045 10.3682L3.50005 10.3682L3.50004 105.632Z" fill="#252422"/>
</svg>
