<svg width="75" height="75" viewBox="0 0 75 75" fill="none" xmlns="http://www.w3.org/2000/svg">
<path fill-rule="evenodd" clip-rule="evenodd" d="M59.6245 23.843C58.931 23.8715 58.2395 23.7499 57.5948 23.4866C56.9505 23.2232 56.3677 22.8235 55.8848 22.3142C55.4033 21.7825 55.029 21.1591 54.7839 20.4791C54.5389 19.7995 54.4277 19.0769 54.4567 18.353C54.4321 17.6362 54.5555 16.9223 54.8191 16.2576C55.083 15.593 55.4808 14.9927 55.9869 14.4959C56.4879 14.0043 57.0793 13.6191 57.7273 13.3626C58.3749 13.1061 59.066 12.9835 59.7603 13.0018C61.3925 13.0018 62.6729 13.4998 63.6021 14.4959C64.0713 15.0136 64.4358 15.6207 64.6751 16.2825C64.914 16.9443 65.0233 17.6481 64.9958 18.353C65.0244 19.0795 64.9096 19.8049 64.6584 20.4853C64.4076 21.1656 64.0249 21.7875 63.5341 22.3142C63.0211 22.8311 62.4086 23.2337 61.736 23.497C61.0631 23.76 60.3442 23.878 59.6245 23.843ZM37.051 51.2246H21.3445L18.1488 61.371C18.0601 61.748 17.7119 62.0149 17.3329 61.9961H9.37747C8.92379 61.9961 8.76516 61.7415 8.90152 61.2317L22.5003 21.2024C22.6364 20.7854 22.7726 20.3107 22.9083 19.7779C23.0864 18.8504 23.1773 17.9082 23.1805 16.9634C23.1414 16.6842 23.3876 16.4376 23.6562 16.4767H34.4675C34.7842 16.4767 34.9652 16.5926 35.0112 16.8242L50.4463 61.3014C50.582 61.7649 50.4463 61.9965 50.0383 61.9961H41.1988C40.8889 62.0315 40.5928 61.8197 40.5189 61.5099L37.051 51.2246ZM32.4778 35.7025C33.1744 37.9538 33.8711 40.2053 34.5356 42.4681H23.7923C24.5334 39.9445 25.306 37.3922 26.084 34.8221C27.1214 31.3952 28.1685 27.9361 29.1639 24.4689C30.1706 28.2455 31.3242 31.9739 32.4778 35.7025ZM54.9327 28.0823V61.301C54.9327 61.7645 55.1369 61.9961 55.5449 61.9961H63.8403C64.2027 61.9965 64.384 61.7649 64.384 61.301V28.0823C64.3837 27.6653 64.2023 27.4568 63.8403 27.4568H55.4768C55.1134 27.4568 54.9327 27.6653 54.9327 28.0823Z" fill="#252422"/>
</svg>
