<svg width="100" height="100" viewBox="0 0 100 100" fill="none" xmlns="http://www.w3.org/2000/svg">
<g clip-path="url(#clip0_7813_372)">
<path fill-rule="evenodd" clip-rule="evenodd" d="M94.8054 0L86.6416 89.9896L49.9453 100L13.3499 90.0037L5.19482 0H94.8054ZM49.9613 18.3978H21.8699L22.8897 29.4365H49.9613H50.0001H65.769L64.7482 40.7401H49.9613L23.8902 40.7403L24.8956 51.7787H50.0001L63.7754 51.7786L62.4732 66.0948L49.951 69.4215L37.4571 66.1019L36.6584 57.2981H30.5873H25.397L26.9686 74.6303L49.9485 80.9075L50.0001 80.8934L72.9594 74.6302L73.1282 72.7653L75.7643 43.7043L76.0381 40.7401L78.0633 18.3978H50.0001H49.9613Z" fill="#252422"/>
</g>
<defs>
<clipPath id="clip0_7813_372">
<rect width="100" height="100" fill="white"/>
</clipPath>
</defs>
</svg>
