<svg width="76" height="75" viewBox="0 0 76 75" fill="none" xmlns="http://www.w3.org/2000/svg">
<path d="M39.1233 42.2784C39.2636 39.7752 40.4894 37.5698 42.3387 36.0065C44.1522 34.471 46.5932 33.5325 49.2565 33.5325C51.9172 33.5325 54.3582 34.471 56.173 36.0065C58.021 37.5698 59.2467 39.7752 59.3884 42.2757C59.5287 44.8477 58.4949 47.2371 56.6814 49.0082C54.8321 50.8098 52.2018 51.9403 49.2565 51.9403C46.3112 51.9403 43.6757 50.8098 41.8277 49.0082C40.0129 47.2371 38.9817 44.8477 39.1233 42.2784Z" fill="#252422"/>
<path d="M22.9872 47.3364C23.0044 48.3159 23.3168 50.2195 23.7854 51.7061C24.7702 54.8526 26.4408 57.7634 28.7653 60.3288C31.1506 62.9657 34.088 65.0837 37.4808 66.5874C41.0469 68.1667 44.9109 68.9715 48.9244 68.9649C52.9314 68.9596 56.7954 68.1389 60.3615 66.5477C63.7542 65.0294 66.6889 62.9022 69.0703 60.264C71.3935 57.688 73.0614 54.7718 74.0489 51.6253C74.5453 50.0355 74.8591 48.4219 74.9848 46.8029C75.1079 45.2078 75.0563 43.6101 74.8299 42.0137C74.3878 38.9029 73.3116 35.984 71.6543 33.3233C70.1386 30.8784 68.1848 28.7379 65.8616 26.9363L65.8669 26.9323L42.4222 8.93089C42.4011 8.91501 42.3839 8.89782 42.3614 8.88326C40.8232 7.70249 38.2366 7.70647 36.5449 8.88989C34.8346 10.0865 34.6387 12.0655 36.161 13.3138L36.1544 13.3204L45.9328 21.2721L16.1289 21.3039H16.0892C13.6257 21.3065 11.2576 22.9228 10.789 24.9653C10.3071 27.0462 11.9803 28.7723 14.5417 28.7816L14.5378 28.7909L29.6442 28.7618L2.68769 49.453C2.65328 49.4782 2.61621 49.5047 2.58444 49.5298C0.0415439 51.477 -0.780476 54.7149 0.821243 56.764C2.44679 58.8476 5.90306 58.8516 8.47243 56.7759L23.1844 44.7352C23.1844 44.7352 22.97 46.3608 22.9872 47.3364ZM60.7917 52.7796C57.7604 55.8678 53.5165 57.6192 48.9244 57.6284C44.3258 57.6364 40.0819 55.901 37.0505 52.818C35.5693 51.3156 34.4812 49.5868 33.81 47.7454C33.1521 45.9359 32.8967 44.0151 33.0661 42.0772C33.2263 40.1829 33.7902 38.376 34.6903 36.7412C35.5746 35.1342 36.7924 33.6821 38.2962 32.4537C41.2428 30.0524 44.9943 28.7525 48.9178 28.7472C52.8453 28.7419 56.5942 30.0299 59.5434 32.4232C61.0445 33.6463 62.2611 35.0932 63.1453 36.6975C64.0494 38.331 64.6094 40.1313 64.7762 42.0309C64.943 43.9662 64.6875 45.8843 64.0296 47.6951C63.3571 49.5418 62.273 51.2705 60.7917 52.7796Z" fill="#252422"/>
</svg>
